<?xml version="1.0" standalone="no"?>
<!DOCTYPE svg PUBLIC "-//W3C//DTD SVG 20010904//EN"
 "http://www.w3.org/TR/2001/REC-SVG-20010904/DTD/svg10.dtd">
<svg version="1.0" xmlns="http://www.w3.org/2000/svg"
 width="100%" height="100%" viewBox="0 0 1080.000000 2100.000000"
 preserveAspectRatio="xMidYMid meet">

<g transform="translate(0.000000,2100.000000) scale(0.100000,-0.100000)"
fill="#000000" stroke="none">
<path d="M6870 8216 c-155 -41 -202 -80 -274 -223 -20 -40 -39 -73 -43 -73 -3
0 -47 26 -97 59 -119 77 -199 120 -321 174 l-100 44 -165 -19 c-107 -13 -181
-26 -212 -40 -60 -26 -114 -85 -211 -231 -64 -97 -113 -185 -256 -462 -18 -33
-67 -141 -110 -240 -43 -99 -92 -207 -109 -240 -16 -33 -59 -128 -96 -211 -65
-149 -100 -217 -184 -361 -23 -39 -42 -74 -42 -76 0 -3 -18 -36 -39 -74 -76
-133 -75 -209 2 -290 23 -24 45 -50 49 -57 11 -19 -219 -744 -320 -1011 -53
-141 -82 -250 -82 -315 0 -75 29 -176 64 -222 31 -40 32 -45 20 -73 -12 -29
-37 -261 -35 -318 1 -15 10 -51 21 -79 11 -29 18 -53 17 -54 -1 -1 -85 -8
-187 -15 -131 -8 -267 -9 -465 -3 -154 4 -415 8 -580 8 l-300 -1 -100 -31
c-164 -52 -272 -111 -343 -186 -116 -124 -202 -271 -202 -345 0 -44 70 -224
98 -254 22 -23 34 -27 66 -25 40 3 40 4 105 119 90 159 132 212 199 253 115
70 155 77 470 86 168 5 307 5 341 -1 145 -23 767 -4 921 29 52 11 124 25 159
31 63 10 64 10 85 -17 45 -57 111 -127 258 -274 209 -209 566 -552 603 -580
49 -36 174 -147 261 -231 128 -124 141 -131 245 -135 74 -3 94 -1 121 16 18
11 105 41 193 67 88 26 189 60 225 76 211 90 366 142 470 154 107 14 234 14
246 2 4 -4 16 -7 27 -7 33 0 0 -28 -42 -36 -20 -4 -44 -13 -54 -19 -22 -16
-87 -112 -87 -129 0 -7 -16 -39 -36 -72 -52 -87 -71 -125 -105 -217 -28 -75
-31 -98 -40 -267 -4 -102 -18 -286 -30 -410 -16 -177 -21 -293 -20 -543 1
-341 6 -387 47 -413 35 -24 128 -13 251 28 115 39 122 48 130 167 5 71 4 80
-17 98 -18 17 -23 38 -31 115 -5 51 -15 127 -24 168 -13 66 -34 230 -65 510
-13 118 -12 290 3 321 19 43 130 186 154 199 19 11 26 9 53 -14 38 -31 51 -32
75 -6 14 15 21 17 31 9 20 -16 124 40 147 78 17 29 16 31 -3 56 l-20 25 47 12
c116 27 143 31 223 33 88 3 225 29 270 52 30 16 96 92 138 160 50 81 100 210
131 334 59 234 66 283 65 486 0 170 -3 202 -26 305 -15 63 -30 133 -33 155
-24 147 -51 266 -86 373 -22 68 -48 167 -59 220 -19 95 -30 134 -84 315 -23
80 -76 208 -210 515 l-45 103 0 507 c0 711 -22 1016 -75 1055 -20 15 -14 37 9
37 18 0 27 28 15 49 -5 10 -35 37 -67 61 -32 24 -92 73 -134 109 -41 37 -92
80 -112 96 l-37 30 -5 310 c-3 171 -10 333 -16 360 -12 59 -111 193 -175 237
-51 36 -278 118 -323 117 -20 0 -74 -10 -121 -23z m182 -50 c18 -8 68 -26 111
-41 106 -37 147 -67 211 -157 65 -91 78 -146 53 -225 -9 -26 -23 -82 -32 -123
-9 -43 -30 -101 -50 -135 l-34 -60 -1 218 c0 169 -3 224 -14 246 -33 62 -209
175 -302 192 -32 6 -67 15 -76 20 -9 5 -40 15 -68 22 l-50 13 82 21 c100 26
127 27 170 9z m-242 -97 c35 -6 35 -6 5 -8 -32 -2 -62 -36 -119 -133 -36 -61
-47 -70 -69 -53 -17 12 -16 18 22 93 22 44 57 97 77 118 l37 39 7 -25 c4 -19
14 -27 40 -31z m266 -84 c27 -19 70 -47 96 -62 52 -32 49 -18 69 -238 11 -121
10 -126 -23 -214 l-9 -24 -27 25 c-15 14 -47 38 -72 54 -25 16 -81 56 -125 89
-45 33 -91 67 -104 75 -23 15 -23 17 -12 90 7 41 20 93 30 116 20 44 94 124
116 124 7 0 35 -16 61 -35z m-269 -227 c-3 -7 -5 -2 -5 12 0 14 2 19 5 13 2
-7 2 -19 0 -25z m-337 -120 c41 -11 122 -35 179 -54 101 -34 108 -38 199 -122
52 -48 162 -145 246 -215 83 -71 149 -132 146 -135 -2 -4 -24 -20 -48 -36
-108 -71 -228 -262 -326 -516 -31 -80 -67 -170 -81 -200 -90 -205 -214 -516
-250 -630 -10 -30 -41 -111 -70 -180 -29 -69 -60 -151 -69 -184 -23 -80 -95
-264 -107 -271 -19 -12 -205 112 -329 221 -71 62 -156 131 -189 153 -33 23
-63 45 -66 51 -4 6 -40 34 -82 63 -241 166 -386 284 -377 306 4 9 15 38 26 65
10 26 30 71 44 98 37 73 124 292 179 448 55 157 139 330 222 455 77 116 165
269 241 420 66 129 142 226 192 243 27 10 35 7 91 -34 34 -25 86 -66 116 -90
56 -46 95 -55 101 -23 3 15 -17 32 -182 161 -21 16 -21 16 14 26 41 12 76 8
180 -20z m800 -595 c-37 -31 -69 -94 -70 -136 0 -16 -13 -45 -29 -65 -38 -49
-137 -235 -171 -325 -34 -88 -107 -268 -148 -362 -16 -38 -55 -144 -87 -235
-31 -91 -79 -228 -107 -305 -27 -77 -83 -238 -123 -357 -41 -120 -85 -241 -99
-270 -14 -29 -29 -65 -35 -80 -8 -20 -15 -26 -27 -21 -10 4 -22 -1 -30 -12
-13 -17 -16 -16 -56 17 -24 19 -101 73 -173 121 -71 47 -164 114 -206 149 -89
74 -257 207 -368 293 -43 33 -105 85 -137 114 -32 30 -91 78 -129 106 -94 70
-98 75 -84 114 6 17 15 31 19 31 10 0 86 -57 160 -120 30 -26 73 -59 95 -73
44 -28 144 -101 262 -191 71 -54 131 -105 278 -230 62 -53 261 -176 285 -176
36 0 103 137 160 331 12 41 44 125 71 187 27 63 56 137 64 164 19 65 110 306
142 378 40 88 147 345 198 475 94 240 201 401 318 480 59 40 75 39 27 -2z
m500 -133 c0 -5 -5 -12 -11 -15 -15 -10 -59 34 -52 51 4 11 11 10 34 -7 16
-11 29 -24 29 -29z m-586 -256 c-14 -76 -36 -175 -50 -218 -14 -44 -36 -125
-49 -180 -13 -56 -40 -143 -59 -194 -20 -51 -43 -121 -51 -155 -9 -34 -40
-123 -70 -197 -128 -323 -184 -468 -200 -519 -10 -29 -34 -90 -55 -135 -21
-44 -54 -128 -75 -186 -21 -58 -46 -122 -57 -144 l-20 -39 -61 7 c-187 21
-180 20 -242 64 -34 23 -66 42 -72 42 -6 0 -43 26 -81 58 -106 87 -321 249
-493 371 -159 113 -339 261 -339 279 0 9 -14 31 -31 48 -25 25 -33 44 -37 82
-5 61 9 74 46 40 15 -13 47 -39 72 -58 25 -19 79 -64 120 -100 41 -37 98 -84
126 -106 67 -51 251 -198 373 -298 53 -43 152 -116 221 -162 69 -46 144 -98
168 -116 32 -24 54 -32 88 -33 40 -2 48 2 68 29 35 47 91 188 172 426 129 383
281 813 317 900 20 47 67 162 106 257 87 213 175 392 187 380 2 -2 -7 -66 -22
-143z m192 -270 c-52 -218 -76 -387 -85 -579 -7 -137 -15 -196 -41 -305 -26
-112 -32 -157 -33 -265 -1 -82 3 -146 11 -173 24 -79 99 -96 128 -27 17 41 18
125 3 180 -7 22 -12 93 -13 158 -1 101 1 116 14 111 8 -4 25 -9 38 -11 20 -5
22 -11 22 -79 0 -52 4 -75 14 -81 12 -6 15 -60 20 -278 4 -237 14 -401 31
-527 5 -34 3 -37 -28 -43 -17 -4 -72 -21 -122 -37 -87 -28 -93 -29 -175 -18
-72 9 -280 49 -287 54 -1 1 4 60 12 131 8 72 18 202 21 290 6 134 10 169 29
215 13 30 55 168 95 305 212 743 325 1096 358 1122 9 7 17 11 19 9 2 -2 -12
-70 -31 -152z m470 -387 c0 -193 -1 -345 -2 -337 -5 25 -35 386 -43 510 -7
113 -7 115 16 133 13 10 23 25 23 33 0 8 1 14 3 14 1 0 2 -159 3 -353z m-2559
-976 c23 -11 49 -21 56 -21 8 0 20 -6 26 -14 19 -22 239 -169 298 -200 29 -14
66 -26 83 -26 24 0 30 -4 30 -21 0 -32 -56 -264 -105 -434 -23 -82 -55 -202
-70 -265 -25 -103 -31 -118 -62 -145 -31 -27 -36 -38 -46 -107 -13 -92 -9
-103 76 -195 107 -114 146 -124 211 -56 67 68 150 270 230 559 14 50 47 151
74 225 27 74 57 158 67 187 9 30 23 52 31 52 19 0 18 -9 -10 -125 -14 -55 -35
-145 -47 -200 -12 -55 -65 -233 -119 -395 -54 -162 -109 -340 -123 -395 -14
-55 -35 -127 -45 -160 -11 -33 -23 -76 -27 -95 -10 -43 -34 -82 -47 -74 -6 4
-27 9 -47 11 -20 3 -42 8 -50 13 -24 13 -173 151 -306 285 -72 71 -222 220
-334 330 -216 213 -261 266 -261 312 0 16 -11 44 -25 63 -29 39 -32 87 -9 131
11 23 20 29 32 23 27 -13 82 -9 97 7 22 22 52 134 80 299 13 80 33 178 44 218
17 64 77 213 118 295 l14 27 62 -44 c34 -24 81 -53 104 -65z m688 -347 c39
-30 81 -65 94 -78 l24 -25 -51 -178 c-29 -98 -64 -218 -78 -268 -69 -242 -139
-432 -181 -496 l-26 -39 -47 44 c-26 24 -65 53 -86 64 -62 32 -77 54 -69 101
5 28 16 47 38 64 28 21 35 37 56 128 13 57 44 176 68 264 57 207 109 417 118
478 l6 47 32 -26 c18 -14 64 -50 102 -80z m719 -24 c-13 -69 -35 -165 -49
-215 -13 -49 -51 -199 -85 -333 -33 -133 -70 -266 -81 -295 -11 -28 -36 -117
-54 -197 -18 -80 -36 -158 -40 -175 -4 -16 -36 -88 -71 -160 -82 -166 -110
-271 -98 -369 4 -39 8 -137 8 -218 1 -135 3 -148 23 -177 13 -16 19 -32 15
-34 -4 -2 -41 -14 -82 -26 -41 -11 -105 -31 -141 -43 l-66 -21 -56 32 c-31 17
-96 69 -144 114 -49 45 -117 105 -152 132 -73 57 -234 203 -239 216 -2 5 -40
39 -85 75 -179 147 -677 671 -677 713 0 9 -9 22 -19 28 -30 19 -83 102 -83
131 -1 23 32 62 52 62 4 0 38 -37 76 -82 38 -45 119 -132 179 -194 61 -62 131
-134 156 -161 88 -92 351 -338 383 -358 18 -11 61 -43 97 -70 35 -28 82 -62
104 -77 22 -14 65 -49 95 -77 37 -34 72 -57 108 -68 61 -20 73 -16 202 66 41
27 87 51 101 54 14 4 41 17 60 30 30 20 34 28 34 67 1 31 21 95 67 210 117
291 253 799 309 1155 10 65 18 85 41 108 32 32 88 144 114 229 10 32 19 57 20
55 2 -1 -8 -59 -22 -127z m-1844 -232 c-25 -84 -33 -96 -53 -79 -12 10 -8 25
27 97 47 97 57 90 26 -18z m1394 8 c-9 -37 -18 -65 -21 -63 -2 3 4 34 13 71 9
37 18 65 21 63 2 -3 -4 -34 -13 -71z m-27 -98 c-3 -8 -6 -5 -6 6 -1 11 2 17 5
13 3 -3 4 -12 1 -19z m817 -73 c128 -41 311 -41 429 0 27 10 37 10 37 2 0 -7
5 -79 10 -162 9 -145 8 -153 -15 -228 -28 -89 -31 -123 -11 -130 11 -4 5 -31
-30 -129 -40 -111 -71 -211 -133 -425 -23 -79 -27 -153 -9 -171 15 -15 27 -5
-182 -149 -241 -165 -290 -195 -327 -200 -33 -5 -33 -4 -33 39 0 35 6 48 29
70 43 41 46 79 12 184 -16 49 -35 102 -42 117 -16 35 1 378 36 727 13 129 29
293 36 363 l12 129 55 -7 c30 -4 87 -17 126 -30z m-950 -409 c-3 -15 -8 -25
-11 -23 -2 3 -1 17 3 31 3 15 8 25 11 23 2 -3 1 -17 -3 -31z m2241 -58 c4 -29
18 -104 31 -165 23 -110 30 -163 14 -113 -4 14 -6 -36 -3 -110 6 -150 -4 -253
-44 -430 -37 -171 -55 -210 -109 -251 -25 -19 -75 -71 -111 -116 -60 -78 -94
-106 -78 -65 4 9 12 43 17 74 10 52 9 61 -14 110 -42 86 -48 124 -34 198 15
76 35 119 86 180 21 25 51 72 67 105 17 33 44 85 61 115 31 56 42 104 77 340
8 52 15 114 15 138 0 59 17 53 25 -10z m-5015 -45 c-8 -3 -22 -10 -32 -14 -11
-6 -18 -4 -22 6 -4 12 3 15 32 14 20 0 30 -3 22 -6z m114 -9 c3 -8 2 -12 -4
-9 -6 3 -10 10 -10 16 0 14 7 11 14 -7z m504 -25 c10 -15 11 -24 3 -32 -20
-20 -11 -38 27 -54 20 -9 31 -18 25 -20 -15 -5 -17 -44 -4 -58 5 -6 12 -20 16
-32 6 -21 3 -23 -37 -23 -40 0 -45 3 -56 33 -7 17 -32 59 -57 92 -42 55 -55
92 -38 108 3 4 29 7 57 7 41 0 54 -4 64 -21z m-1188 -30 c0 -17 -11 -52 -23
-78 -13 -26 -27 -64 -31 -85 -12 -63 -27 -85 -88 -126 -70 -46 -71 -43 -28 85
16 50 38 117 48 150 17 56 21 61 58 72 59 18 64 16 64 -18z m1654 -58 l69 -69
-39 -11 c-91 -23 -211 -41 -283 -41 l-76 0 40 36 c56 50 198 153 210 154 6 0
41 -31 79 -69z m1622 23 c-8 -21 -15 -34 -15 -28 -1 15 20 76 25 71 2 -2 -2
-21 -10 -43z m-2644 -142 c-41 -2 -76 -1 -79 2 -2 2 8 43 22 90 l27 85 53 -87
52 -87 -75 -3z m4611 -100 c19 -59 37 -135 41 -168 5 -57 3 -65 -23 -100 -15
-22 -37 -47 -48 -57 -20 -17 -20 -16 -27 59 -3 42 -6 152 -6 243 1 194 7 196
63 23z m-2713 33 c13 -14 21 -25 18 -25 -2 0 -15 11 -28 25 -13 14 -21 25 -18
25 2 0 15 -11 28 -25z m151 -152 l34 -36 -37 28 c-21 15 -38 31 -38 36 0 14 4
11 41 -28z m-3088 -200 c18 -6 20 -12 11 -37 -10 -25 -32 -19 -49 14 -19 37
-19 44 3 35 9 -4 25 -10 35 -12z m6012 -212 c-10 -33 -26 -68 -36 -77 -25 -23
-24 -17 11 58 16 34 30 69 30 77 0 8 3 12 6 9 3 -4 -2 -33 -11 -67z m-811
-162 c17 -10 40 -19 52 -19 11 0 29 -9 40 -21 24 -27 67 -49 94 -49 27 0 25
-11 -8 -35 -24 -19 -36 -20 -112 -14 -47 3 -110 11 -140 17 -245 48 -365 57
-503 37 -40 -7 74 36 213 78 97 29 114 32 219 29 90 -3 120 -8 145 -23z m-134
-198 c0 -19 74 -66 137 -87 l64 -22 -28 -20 -28 -20 -85 79 c-47 43 -79 79
-72 79 6 0 12 -4 12 -9z m25 -105 c63 -60 86 -88 82 -100 -4 -9 -12 -16 -19
-16 -20 0 -191 176 -184 189 14 22 33 10 121 -73z m-215 -53 c19 -27 48 -65
66 -85 18 -20 40 -48 50 -63 16 -24 16 -26 -1 -39 -17 -12 -23 -8 -59 37 -78
96 -127 170 -122 183 10 26 32 14 66 -33z m435 -13 c-3 -5 -11 -10 -16 -10 -6
0 -7 5 -4 10 3 6 11 10 16 10 6 0 7 -4 4 -10z m-437 -162 l52 -46 -84 -85
c-90 -91 -135 -167 -142 -238 -2 -22 -8 -58 -13 -78 -5 -20 -19 -97 -31 -171
-11 -74 -25 -160 -30 -190 -6 -41 -5 -60 5 -75 10 -17 10 -42 -1 -139 -9 -77
-12 -170 -8 -269 3 -84 5 -164 5 -179 -1 -14 6 -34 15 -42 14 -15 13 -18 -15
-34 -39 -22 -44 -35 -30 -84 5 -22 8 -42 5 -45 -36 -37 -39 511 -5 907 11 129
24 316 28 415 9 175 10 182 46 272 20 50 50 113 66 139 l30 47 27 -29 c15 -16
51 -50 80 -76z m288 -63 c-11 -8 -25 -15 -30 -15 -6 0 -2 7 8 15 11 8 25 15
30 15 6 0 2 -7 -8 -15z m-278 -1448 c2 -21 -1 -37 -7 -37 -6 0 -11 11 -11 25
0 33 -20 40 -65 25 -20 -7 -39 -10 -42 -7 -7 7 87 37 107 34 10 -1 16 -16 18
-40z"/>
<path d="M6611 7346 c-18 -22 -9 -31 79 -76 43 -23 111 -70 152 -106 74 -65
104 -77 115 -48 9 25 -126 145 -217 192 -97 51 -114 56 -129 38z"/>
<path d="M5812 5727 c-6 -7 -9 -23 -5 -35 4 -18 1 -22 -20 -22 -35 0 -49 -27
-37 -71 8 -30 30 -48 167 -139 87 -57 176 -118 198 -136 36 -28 96 -64 109
-64 13 0 36 34 36 54 0 26 25 52 55 58 28 5 33 48 7 55 -11 3 -22 12 -24 21
-3 10 -58 53 -124 97 -65 44 -156 106 -201 137 -84 60 -137 74 -161 45z"/>
<path d="M5647 3893 c-17 -16 -3 -42 46 -91 56 -56 68 -60 87 -37 10 12 3 25
-46 75 -57 58 -73 68 -87 53z"/>
</g>
</svg>
