<?xml version="1.0" standalone="no"?>
<!DOCTYPE svg PUBLIC "-//W3C//DTD SVG 20010904//EN"
 "http://www.w3.org/TR/2001/REC-SVG-20010904/DTD/svg10.dtd">
<svg version="1.0" xmlns="http://www.w3.org/2000/svg"
 width="230.000000pt" height="96.000000pt" viewBox="0 0 230.000000 96.000000"
 preserveAspectRatio="xMidYMid meet">

<g transform="translate(0.000000,96.000000) scale(0.100000,-0.100000)"
fill="#000000" stroke="none">
<path d="M1420 904 c-19 -3 -109 -13 -200 -24 -91 -11 -212 -25 -270 -30 -58
-6 -136 -16 -175 -21 -38 -5 -200 -25 -359 -44 -160 -19 -297 -37 -306 -40
-13 -4 -17 -19 -19 -62 -1 -31 -4 -59 -6 -63 -6 -10 141 -177 472 -540 l60
-64 79 13 c43 7 140 21 214 31 74 11 169 26 210 35 41 9 118 23 170 30 208 29
455 69 657 106 116 22 232 41 259 43 l47 4 -2 66 c-2 52 1 67 13 72 26 10 18
27 -27 60 -102 74 -361 246 -457 304 -58 34 -125 76 -149 93 -36 25 -55 30
-110 32 -36 2 -82 1 -101 -1z m200 -50 c30 -20 98 -62 150 -94 100 -61 303
-195 416 -276 l67 -48 -79 -18 c-211 -46 -366 -78 -439 -88 -44 -6 -127 -20
-185 -31 -58 -10 -175 -26 -260 -34 -265 -25 -603 -75 -619 -90 -12 -13 11
-12 84 1 116 21 375 54 575 74 141 14 452 64 625 100 140 29 251 50 267 50 5
0 8 -21 6 -47 l-3 -48 -285 -51 c-157 -28 -364 -63 -460 -77 -252 -39 -513
-82 -753 -124 -95 -16 -98 -16 -116 3 -54 58 -166 181 -236 259 -44 49 -122
134 -173 189 l-92 100 0 58 c0 31 4 59 9 62 5 3 105 17 222 31 118 14 302 36
409 50 107 13 227 26 265 30 39 3 142 15 230 26 144 17 188 21 290 27 20 1 49
-10 85 -34z"/>
<path d="M130 702 c0 -14 505 -512 520 -512 8 0 -102 117 -245 260 -143 143
-263 260 -267 260 -5 0 -8 -3 -8 -8z"/>
</g>
</svg>
