<?xml version="1.0" encoding="UTF-8" standalone="no"?>
<!DOCTYPE svg PUBLIC "-//W3C//DTD SVG 1.1//EN" "http://www.w3.org/Graphics/SVG/1.1/DTD/svg11.dtd">
<svg width="259.20" height="504.00" viewBox="0.00 0.00 1080.00 2100.00" xmlns="http://www.w3.org/2000/svg" xmlns:xlink="http://www.w3.org/1999/xlink">
<g stroke-linecap="round" id="가방_2">
<path d="M656.50,1311.50 C660.05,1305.57 670.40,1288.48 671.50,1287.50 C673.07,1286.13 675.95,1285.82 676.50,1285.50 C677.32,1285.04 678.86,1283.23 680.57,1282.81 C684.47,1281.76 690.43,1280.46 694.13,1279.95 C698.31,1279.40 705.15,1279.29 708.07,1280.48 C709.11,1280.91 716.28,1284.18 720.69,1285.29 C724.38,1286.36 730.47,1291.04 733.73,1294.41 C736.07,1296.87 741.76,1303.76 744.01,1306.53 C745.35,1308.17 745.78,1309.14 745.70,1310.44 C745.47,1313.50 746.47,1323.14 746.84,1334.07 C747.35,1351.70 747.69,1372.09 747.50,1372.50 C747.00,1373.59 745.89,1374.36 745.50,1375.50 C745.35,1375.95 747.15,1378.44 747.50,1379.50 C747.66,1379.94 748.19,1383.23 748.50,1383.50 C748.52,1383.52 751.44,1383.90 752.50,1384.50 C753.30,1384.96 755.71,1387.61 757.11,1389.35 C758.38,1390.94 758.25,1392.88 758.50,1393.50 C758.60,1393.73 761.35,1394.03 762.51,1394.49 C766.79,1396.16 777.88,1404.68 780.66,1406.88 C782.26,1408.08 782.84,1409.10 783.50,1411.50" fill="none" stroke="rgb(0, 0, 0)" stroke-width="24.80" stroke-opacity="1.00" stroke-linejoin="round"/>
<path d="M676.50,1285.50 C678.18,1287.41 680.63,1289.97 681.50,1290.50 C682.12,1290.87 684.90,1290.46 685.50,1290.50 C686.54,1290.56 693.04,1293.03 693.50,1293.50 C694.25,1294.26 694.55,1295.51 695.50,1296.00 C696.11,1296.32 697.85,1295.45 699.42,1296.01 C700.85,1296.48 702.69,1296.33 703.28,1296.26 C704.57,1296.16 706.05,1296.71 708.09,1298.08 C711.48,1300.36 721.25,1307.31 721.50,1307.50 C723.65,1309.14 724.92,1310.74 725.50,1312.50 C727.27,1318.33 727.58,1329.66 727.20,1342.46 C726.61,1356.12 726.34,1357.06 725.50,1358.50" fill="none" stroke="rgb(0, 0, 0)" stroke-width="24.80" stroke-opacity="1.00" stroke-linejoin="round"/>
<path d="M609.50,1295.50 C609.50,1295.50 614.50,1289.50 614.50,1289.50" fill="none" stroke="rgb(0, 0, 0)" stroke-width="24.80" stroke-opacity="1.00" stroke-linejoin="round"/>
<path d="M613.50,1296.50 C613.50,1296.50 617.50,1290.50 617.50,1290.50" fill="none" stroke="rgb(0, 0, 0)" stroke-width="24.80" stroke-opacity="1.00" stroke-linejoin="round"/>
<path d="M633.50,1617.50 C617.76,1607.34 598.74,1593.45 582.82,1580.86 C575.78,1575.13 563.09,1564.82 557.44,1560.24 C551.30,1555.30 547.71,1553.69 541.22,1548.21 C514.72,1525.54 479.70,1495.72 479.50,1495.50 C478.49,1494.36 478.51,1493.22 479.50,1491.37 C479.51,1491.35 503.18,1440.28 505.77,1433.55 C507.07,1430.17 510.39,1419.49 515.67,1406.72 C522.03,1392.18 535.77,1361.30 543.15,1344.97 C547.86,1334.81 552.61,1325.18 555.91,1320.47 C559.03,1316.09 571.44,1300.16 572.50,1299.50 C573.39,1298.95 576.35,1298.61 576.50,1298.50 C577.28,1297.97 578.89,1296.21 580.68,1295.75 C589.01,1293.45 599.24,1292.81 600.50,1293.50 C600.99,1293.78 602.97,1296.27 603.50,1296.50 C604.15,1296.78 611.81,1295.74 613.84,1296.63 C614.41,1296.89 616.24,1297.76 617.61,1297.85 C618.79,1297.92 621.37,1295.91 622.50,1295.50 C622.94,1295.35 633.23,1297.96 636.50,1299.50 C637.51,1299.98 654.00,1311.00 659.50,1314.50 C661.81,1316.11 677.07,1327.32 677.50,1327.50 C678.19,1327.80 681.14,1328.23 681.50,1328.50 C681.54,1328.53 684.23,1332.20 685.50,1333.50 C686.26,1334.28 713.62,1353.82 716.97,1356.05 C719.87,1357.95 725.83,1358.99 726.50,1359.50 C726.68,1359.64 726.97,1362.60 727.50,1363.50 C727.97,1364.31 734.56,1369.59 739.05,1372.86 C741.96,1374.96 744.59,1375.52 745.50,1375.50" fill="none" stroke="rgb(0, 0, 0)" stroke-width="24.80" stroke-opacity="1.00" stroke-linejoin="round"/>
<path d="M681.50,1328.50 C683.17,1327.02 683.79,1326.04 683.95,1324.24 C684.26,1320.85 685.40,1314.07 686.86,1310.69 C688.42,1307.20 695.33,1299.02 695.50,1298.50 C695.65,1298.03 695.65,1297.03 695.50,1295.50" fill="none" stroke="rgb(0, 0, 0)" stroke-width="24.80" stroke-opacity="1.00" stroke-linejoin="round"/>
<path d="M603.50,1296.50 C599.68,1298.84 581.31,1305.80 578.43,1307.08 C575.11,1308.58 569.91,1311.95 568.43,1313.78 C564.71,1318.54 553.68,1348.18 553.50,1348.50 C553.11,1349.20 550.77,1352.05 550.50,1352.50 C550.06,1353.24 547.62,1360.63 546.03,1362.58 C544.54,1364.40 538.88,1377.67 536.33,1383.65 C521.87,1418.15 494.56,1483.92 494.40,1484.27 C493.55,1486.20 493.35,1487.54 493.93,1488.60 C497.00,1493.93 518.85,1512.11 536.20,1525.55 C562.41,1545.73 603.29,1578.53 610.42,1583.97 C617.39,1589.22 626.35,1593.48 628.50,1594.50" fill="none" stroke="rgb(0, 0, 0)" stroke-width="24.80" stroke-opacity="1.00" stroke-linejoin="round"/>
<path d="M609.50,1295.50 C609.50,1295.50 613.50,1295.50 613.50,1295.50" fill="none" stroke="rgb(0, 0, 0)" stroke-width="24.80" stroke-opacity="1.00" stroke-linejoin="round"/>
<path d="M564.50,1320.50 C564.50,1320.50 559.50,1315.50 559.50,1315.50" fill="none" stroke="rgb(0, 0, 0)" stroke-width="24.80" stroke-opacity="1.00" stroke-linejoin="round"/>
<path d="M598.50,1316.50 C598.50,1316.50 642.50,1352.50 642.50,1352.50" fill="none" stroke="rgb(0, 0, 0)" stroke-width="24.80" stroke-opacity="1.00" stroke-linejoin="round"/>
<path d="M664.50,1367.50 C667.06,1368.77 674.39,1372.43 677.09,1374.14 C683.31,1378.13 690.80,1386.58 692.50,1388.50" fill="none" stroke="rgb(0, 0, 0)" stroke-width="24.80" stroke-opacity="1.00" stroke-linejoin="round"/>
<path d="M748.50,1383.50 C748.19,1384.63 746.97,1386.00 745.50,1386.50 C744.45,1386.85 734.26,1386.35 733.50,1386.50 C732.34,1386.76 728.97,1390.02 724.10,1393.06 C719.54,1395.89 715.53,1399.08 712.81,1401.94 C708.18,1406.87 701.16,1417.59 698.60,1422.72 C694.65,1430.64 661.66,1513.51 648.66,1546.66 C642.80,1562.21 631.70,1591.24 631.50,1591.50 C630.88,1592.38 628.50,1594.11 628.50,1594.50 C628.51,1594.87 628.84,1595.87 629.50,1597.50" fill="none" stroke="rgb(0, 0, 0)" stroke-width="24.80" stroke-opacity="1.00" stroke-linejoin="round"/>
<path d="M758.50,1393.50 C755.28,1393.97 744.62,1395.48 744.50,1395.50 C741.08,1396.05 736.37,1397.38 734.09,1399.12 C731.30,1401.29 728.21,1404.84 725.28,1408.85 C719.07,1417.63 712.51,1428.38 708.21,1437.08 C703.97,1445.82 690.96,1476.37 684.26,1493.77 C673.14,1524.62 656.93,1571.92 652.29,1585.41 C648.85,1595.20 642.50,1610.47 642.50,1610.50 C642.47,1611.17 642.85,1611.93 642.50,1612.50 C642.44,1612.59 634.81,1616.79 633.50,1617.50" fill="none" stroke="rgb(0, 0, 0)" stroke-width="24.80" stroke-opacity="1.00" stroke-linejoin="round"/>
<path d="M780.50,1469.50 C780.04,1464.01 779.55,1459.19 778.94,1456.52 C778.54,1454.84 774.56,1442.07 772.27,1431.71 C771.33,1427.73 768.79,1421.05 766.77,1418.63 C765.65,1417.33 763.32,1415.69 761.92,1415.20 C758.81,1414.22 754.96,1414.71 750.50,1416.50 C749.44,1416.96 746.78,1417.91 746.50,1418.50 C746.17,1419.67 745.83,1420.83 745.50,1422.00 C745.38,1422.26 742.88,1422.74 741.50,1423.50 C740.76,1423.90 732.51,1430.93 731.50,1431.50 C730.87,1431.86 727.85,1433.12 727.50,1433.50 C727.03,1434.03 717.71,1453.16 715.50,1459.50 C713.29,1465.93 710.56,1480.57 708.36,1487.10 C705.58,1494.25 700.46,1508.37 698.63,1517.23 C697.42,1523.26 695.81,1530.43 695.50,1531.50 C694.29,1535.62 692.27,1538.98 692.50,1539.50 C693.00,1540.60 694.11,1541.37 694.50,1542.50 C694.79,1543.31 693.86,1547.07 693.50,1548.50" fill="none" stroke="rgb(0, 0, 0)" stroke-width="24.80" stroke-opacity="1.00" stroke-linejoin="round"/>
<path d="M783.50,1419.50 C785.03,1427.60 785.59,1434.63 786.15,1446.00 C786.88,1463.86 788.12,1495.69 788.62,1509.66 C788.65,1510.98 787.42,1579.33 787.50,1579.50 C788.00,1580.59 789.14,1581.36 789.50,1582.50 C789.67,1583.06 787.29,1586.46 786.74,1587.86 C785.41,1591.14 785.30,1599.62 785.28,1601.22 C785.36,1616.91 786.47,1660.64 786.77,1664.53 C787.26,1670.13 788.45,1687.00 788.93,1689.48 C789.74,1693.73 788.34,1728.59 789.03,1732.08 C789.27,1733.23 790.16,1737.77 790.31,1738.40 C790.91,1740.72 791.67,1741.73 793.41,1742.76 C794.84,1743.60 795.78,1744.88 796.50,1746.94 C797.71,1750.36 800.32,1758.19 801.72,1762.61 C802.76,1766.19 804.84,1773.31 804.60,1776.30 C804.41,1778.33 804.76,1778.99 806.50,1780.50" fill="none" stroke="rgb(0, 0, 0)" stroke-width="24.80" stroke-opacity="1.00" stroke-linejoin="round"/>
<path d="M723.50,1581.50 C723.78,1573.31 724.54,1566.07 726.67,1555.61 C730.20,1540.18 737.28,1507.55 740.33,1491.20 C742.95,1475.42 747.53,1446.79 749.21,1431.15 C749.33,1429.81 750.52,1427.59 750.50,1427.50 C750.39,1427.10 747.19,1424.19 745.50,1422.50" fill="none" stroke="rgb(0, 0, 0)" stroke-width="24.80" stroke-opacity="1.00" stroke-linejoin="round"/>
<path d="M776.50,1475.50 C776.55,1490.64 776.58,1531.66 776.02,1534.66 C775.44,1537.71 775.36,1561.05 775.50,1561.50 C775.72,1562.21 776.61,1563.95 776.27,1565.91 C775.03,1573.17 776.33,1582.30 776.50,1583.50" fill="none" stroke="rgb(0, 0, 0)" stroke-width="24.80" stroke-opacity="1.00" stroke-linejoin="round"/>
<path d="M471.50,1516.50 C473.95,1516.99 479.10,1518.74 481.50,1520.50 C482.89,1521.56 485.16,1524.34 485.50,1525.50 C485.75,1526.36 485.99,1529.71 486.50,1530.50 C486.93,1531.13 493.31,1534.24 496.87,1537.64 C503.66,1544.25 509.20,1550.47 509.50,1550.50 C510.24,1550.56 512.14,1549.21 513.18,1549.50 C514.88,1549.99 528.52,1560.40 534.80,1565.22 C542.66,1571.31 557.14,1582.51 563.77,1587.62 C569.94,1592.27 585.42,1603.30 585.50,1603.50 C585.61,1603.78 585.44,1606.49 585.77,1607.15 C586.70,1609.03 592.82,1613.52 596.56,1616.16 C598.43,1617.46 601.78,1619.81 603.27,1620.87 C605.14,1622.16 606.70,1624.00 607.50,1624.50 C607.67,1624.61 610.67,1624.98 611.50,1625.50 C612.25,1625.95 614.20,1628.51 614.50,1628.50 C615.17,1628.17 615.83,1627.83 616.50,1627.50 C617.25,1627.46 617.78,1628.30 618.50,1628.50 C619.14,1628.68 619.87,1628.29 620.50,1628.50 C620.95,1628.66 623.99,1631.73 625.19,1632.82 C626.68,1634.18 628.78,1635.01 629.96,1634.76 C630.92,1634.53 631.44,1634.44 631.50,1634.50 C632.17,1635.50 632.83,1636.50 633.50,1637.50 C633.89,1637.87 636.84,1637.27 637.50,1637.50 C638.11,1637.68 640.23,1639.37 641.50,1639.50 C642.75,1639.62 649.29,1637.84 650.50,1637.50" fill="none" stroke="rgb(0, 0, 0)" stroke-width="24.80" stroke-opacity="1.00" stroke-linejoin="round"/>
<path d="M743.50,1525.50 C743.50,1525.50 744.50,1565.50 744.50,1565.50" fill="none" stroke="rgb(0, 0, 0)" stroke-width="24.80" stroke-opacity="1.00" stroke-linejoin="round"/>
<path d="M486.50,1530.50 C483.41,1534.51 481.71,1537.39 480.84,1541.03 C473.02,1574.50 463.44,1615.13 461.68,1622.29 C461.30,1623.78 459.29,1631.69 457.52,1633.89 C456.84,1634.73 454.11,1637.25 453.50,1638.50 C452.98,1639.60 452.82,1641.98 453.00,1643.99 C453.21,1645.62 453.98,1647.87 454.97,1649.03 C456.20,1650.44 474.81,1667.06 478.20,1668.87 C479.37,1669.48 481.71,1669.75 482.50,1669.50 C484.21,1668.81 486.28,1663.73 487.16,1659.66 C488.66,1652.44 490.86,1639.74 491.72,1634.22 C492.36,1630.85 509.89,1557.27 509.97,1556.95 C510.70,1554.01 509.97,1551.54 509.50,1550.50" fill="none" stroke="rgb(0, 0, 0)" stroke-width="24.80" stroke-opacity="1.00" stroke-linejoin="round"/>
<path d="M581.50,1538.50 C583.02,1539.09 587.01,1540.60 587.50,1540.50 C587.97,1540.42 588.03,1539.52 588.50,1539.50 C588.71,1539.50 613.67,1555.74 614.50,1556.50 C615.30,1557.23 618.16,1560.49 618.50,1560.50 C618.72,1560.51 621.45,1558.56 622.50,1558.50 C623.69,1558.43 627.13,1559.55 629.50,1560.50" fill="none" stroke="rgb(0, 0, 0)" stroke-width="24.80" stroke-opacity="1.00" stroke-linejoin="round"/>
<path d="M692.50,1539.50 C691.01,1540.82 688.64,1543.58 687.50,1545.50 C686.52,1547.16 655.25,1630.40 653.56,1633.12 C652.76,1634.42 650.49,1637.28 650.50,1637.50 C650.54,1637.97 651.74,1638.88 651.79,1640.55 C651.93,1644.28 651.27,1647.64 649.66,1651.38 C648.66,1653.66 638.27,1694.22 633.72,1712.20 C629.81,1727.41 621.94,1757.26 618.36,1767.89 C613.41,1782.17 611.55,1788.08 611.50,1788.50 C611.37,1789.56 610.79,1793.26 609.50,1794.50 C609.03,1794.94 599.11,1799.77 595.14,1801.27 C591.08,1802.78 584.07,1803.99 581.53,1803.44 C580.26,1803.11 578.33,1801.51 577.77,1800.21 C577.34,1799.20 576.75,1795.25 576.50,1795.00 C576.46,1794.96 569.33,1792.75 566.50,1792.29 C564.99,1792.01 559.07,1786.94 555.33,1783.62 C553.48,1781.98 546.81,1776.08 546.50,1776.00 C545.84,1775.83 543.36,1776.66 541.56,1776.08 C539.68,1775.45 537.69,1773.82 537.15,1772.45 C535.57,1768.25 534.04,1765.75 531.72,1762.78 C526.23,1756.06 472.01,1701.48 471.29,1700.81 C469.34,1699.05 463.84,1698.21 461.50,1696.50 C459.44,1694.96 449.29,1683.13 447.18,1681.76 C445.20,1680.44 443.04,1676.09 442.10,1672.21 C441.49,1669.81 434.92,1661.66 434.50,1660.50 C434.15,1659.53 433.71,1654.98 433.50,1654.50 C433.18,1653.76 430.10,1651.64 429.88,1651.38 C429.03,1650.38 428.18,1647.27 428.17,1645.39 C428.20,1642.65 429.49,1633.76 430.78,1631.62 C431.02,1631.25 431.66,1630.91 431.50,1630.50 C431.33,1630.06 430.66,1629.95 430.50,1629.50 C430.45,1629.35 436.26,1615.86 440.69,1603.30 C446.19,1586.90 456.46,1555.72 456.84,1552.68 C457.15,1550.41 459.96,1548.46 461.50,1547.50" fill="none" stroke="rgb(0, 0, 0)" stroke-width="24.80" stroke-opacity="1.00" stroke-linejoin="round"/>
<path d="M629.50,1840.50 C627.78,1839.88 627.26,1839.16 627.59,1837.21 C628.26,1833.11 628.67,1826.18 628.28,1821.71 C628.05,1819.12 626.47,1808.20 626.50,1807.50 C626.61,1805.46 630.87,1793.49 632.19,1788.94 C641.84,1753.22 659.59,1686.25 667.67,1655.00 C676.61,1619.51 693.59,1549.82 693.50,1549.50 C693.00,1547.85 690.48,1545.52 688.50,1544.50" fill="none" stroke="rgb(0, 0, 0)" stroke-width="24.80" stroke-opacity="1.00" stroke-linejoin="round"/>
<path d="M457.50,1552.50 C457.50,1552.50 462.50,1556.50 462.50,1556.50" fill="none" stroke="rgb(0, 0, 0)" stroke-width="24.80" stroke-opacity="1.00" stroke-linejoin="round"/>
<path d="M456.50,1555.50 C456.50,1555.50 461.50,1559.50 461.50,1559.50" fill="none" stroke="rgb(0, 0, 0)" stroke-width="24.80" stroke-opacity="1.00" stroke-linejoin="round"/>
<path d="M622.50,1295.50 C621.53,1294.22 618.85,1290.68 618.50,1290.50 C618.17,1290.33 617.86,1291.11 617.50,1291.00 C616.70,1290.77 616.28,1289.78 615.50,1289.50 C615.15,1289.38 614.87,1290.05 614.50,1290.00 C614.17,1289.95 610.47,1287.05 609.16,1286.10 C607.41,1284.82 605.06,1283.99 603.76,1284.13 C603.33,1284.18 602.91,1284.67 602.50,1284.50 C602.06,1284.34 601.94,1283.68 601.50,1283.50 C601.22,1283.39 580.69,1286.14 573.98,1287.29 C569.77,1288.03 563.04,1290.45 560.30,1292.71 C558.77,1294.01 544.91,1313.89 543.80,1315.59 C539.91,1321.59 522.23,1356.23 514.50,1372.50 C508.03,1386.84 495.03,1415.68 488.50,1430.17 C479.34,1449.22 461.86,1481.32 460.80,1483.39 C459.17,1486.64 457.39,1491.81 457.59,1493.64 C457.77,1494.99 458.97,1497.43 460.06,1498.78 C460.87,1499.78 467.02,1506.90 468.40,1509.68 C468.86,1510.62 470.05,1513.76 470.50,1514.50 C471.48,1516.18 471.52,1516.80 470.73,1518.87 C470.59,1519.23 461.38,1547.22 461.50,1547.50 C461.88,1548.36 463.06,1548.67 463.50,1549.50 C463.71,1549.90 458.80,1570.69 456.60,1578.77 C453.86,1588.29 441.02,1621.68 436.50,1634.50" fill="none" stroke="rgb(0, 0, 0)" stroke-width="24.80" stroke-opacity="1.00" stroke-linejoin="round"/>
<path d="M455.50,1559.50 C455.50,1559.50 460.50,1563.50 460.50,1563.50" fill="none" stroke="rgb(0, 0, 0)" stroke-width="24.80" stroke-opacity="1.00" stroke-linejoin="round"/>
<path d="M620.50,1566.50 C620.50,1566.50 618.50,1560.50 618.50,1560.50" fill="none" stroke="rgb(0, 0, 0)" stroke-width="24.80" stroke-opacity="1.00" stroke-linejoin="round"/>
<path d="M460.50,1563.50 C460.50,1563.50 458.50,1567.50 458.50,1567.50" fill="none" stroke="rgb(0, 0, 0)" stroke-width="24.80" stroke-opacity="1.00" stroke-linejoin="round"/>
<path d="M453.50,1566.50 C453.50,1566.50 458.50,1567.50 458.50,1567.50" fill="none" stroke="rgb(0, 0, 0)" stroke-width="24.80" stroke-opacity="1.00" stroke-linejoin="round"/>
<path d="M452.50,1568.50 C452.50,1568.50 457.50,1572.50 457.50,1572.50" fill="none" stroke="rgb(0, 0, 0)" stroke-width="24.80" stroke-opacity="1.00" stroke-linejoin="round"/>
<path d="M789.50,1582.50 C792.23,1583.84 793.63,1585.66 795.96,1590.67 C799.08,1597.68 806.03,1614.35 809.25,1622.25 C813.14,1632.37 815.12,1639.35 817.50,1649.50 C819.16,1657.04 822.65,1672.85 824.50,1679.50 C825.62,1683.39 830.84,1697.75 833.17,1708.47 C836.06,1722.66 842.89,1761.94 843.30,1770.92 C843.49,1775.49 841.68,1788.49 840.26,1796.33 C838.68,1804.38 834.69,1823.05 833.30,1827.60 C830.93,1835.36 825.11,1848.88 821.00,1854.93 C819.64,1856.90 814.04,1864.22 811.82,1866.03 C810.16,1867.35 805.67,1868.75 801.29,1869.72 C794.49,1871.15 779.18,1872.52 771.45,1873.18 C766.04,1873.71 747.40,1877.22 746.50,1877.50 C744.94,1877.99 743.22,1878.90 742.50,1879.50" fill="none" stroke="rgb(0, 0, 0)" stroke-width="24.80" stroke-opacity="1.00" stroke-linejoin="round"/>
<path d="M441.50,1601.50 C441.50,1601.50 446.50,1605.50 446.50,1605.50" fill="none" stroke="rgb(0, 0, 0)" stroke-width="24.80" stroke-opacity="1.00" stroke-linejoin="round"/>
<path d="M438.50,1609.50 C438.50,1609.50 443.50,1613.50 443.50,1613.50" fill="none" stroke="rgb(0, 0, 0)" stroke-width="24.80" stroke-opacity="1.00" stroke-linejoin="round"/>
<path d="M587.50,1609.50 C586.16,1610.02 584.30,1611.33 583.50,1612.50 C582.83,1613.49 581.01,1625.70 577.77,1639.48 C569.72,1670.59 560.50,1706.08 560.50,1706.50 C560.49,1707.50 560.98,1708.62 560.50,1709.50 C560.33,1709.81 555.52,1712.39 554.50,1713.50 C553.53,1714.55 551.43,1724.05 551.36,1724.63 C551.21,1726.12 551.81,1728.82 552.64,1730.41 C555.14,1734.96 565.60,1746.56 567.76,1747.68 C569.21,1748.38 571.51,1748.56 572.80,1748.10 C575.22,1747.15 579.74,1742.15 582.03,1737.71 C584.20,1733.46 590.07,1717.25 592.57,1709.66 C597.55,1693.29 608.48,1655.62 611.59,1642.08 C612.85,1636.20 614.31,1629.41 614.50,1628.50" fill="none" stroke="rgb(0, 0, 0)" stroke-width="24.80" stroke-opacity="1.00" stroke-linejoin="round"/>
<path d="M433.50,1622.50 C431.65,1624.91 431.35,1626.09 432.50,1626.50" fill="none" stroke="rgb(0, 0, 0)" stroke-width="24.80" stroke-opacity="1.00" stroke-linejoin="round"/>
<path d="M432.50,1626.50 C432.50,1626.50 437.50,1630.50 437.50,1630.50" fill="none" stroke="rgb(0, 0, 0)" stroke-width="24.80" stroke-opacity="1.00" stroke-linejoin="round"/>
<path d="M432.50,1652.50 C434.62,1650.43 435.91,1647.58 436.10,1644.01 C436.53,1638.19 438.80,1626.94 438.50,1626.50 C437.80,1625.52 436.47,1625.21 435.50,1624.50 C434.99,1624.14 434.33,1623.48 433.50,1622.50" fill="none" stroke="rgb(0, 0, 0)" stroke-width="24.80" stroke-opacity="1.00" stroke-linejoin="round"/>
<path d="M431.50,1630.50 C431.50,1630.50 436.50,1634.50 436.50,1634.50" fill="none" stroke="rgb(0, 0, 0)" stroke-width="24.80" stroke-opacity="1.00" stroke-linejoin="round"/>
<path d="M480.50,1647.50 C480.70,1645.97 480.35,1645.17 478.67,1643.82 C477.81,1643.13 469.61,1636.34 466.80,1634.18 C463.83,1631.87 460.53,1630.63 459.50,1630.50" fill="none" stroke="rgb(0, 0, 0)" stroke-width="24.80" stroke-opacity="1.00" stroke-linejoin="round"/>
<path d="M801.50,1635.50 C803.61,1641.64 808.32,1655.70 810.60,1663.20 C814.61,1678.36 821.56,1704.51 824.50,1715.50" fill="none" stroke="rgb(0, 0, 0)" stroke-width="24.80" stroke-opacity="1.00" stroke-linejoin="round"/>
<path d="M633.50,1637.50 C629.59,1649.44 625.59,1665.02 625.36,1665.92 C624.62,1668.73 622.43,1672.78 619.50,1677.50" fill="none" stroke="rgb(0, 0, 0)" stroke-width="24.80" stroke-opacity="1.00" stroke-linejoin="round"/>
<path d="M623.50,1647.50 C623.50,1647.50 620.50,1658.50 620.50,1658.50" fill="none" stroke="rgb(0, 0, 0)" stroke-width="24.80" stroke-opacity="1.00" stroke-linejoin="round"/>
<path d="M623.50,1647.50 C623.50,1647.50 628.50,1651.50 628.50,1651.50" fill="none" stroke="rgb(0, 0, 0)" stroke-width="24.80" stroke-opacity="1.00" stroke-linejoin="round"/>
<path d="M622.50,1650.50 C622.50,1650.50 627.50,1654.50 627.50,1654.50" fill="none" stroke="rgb(0, 0, 0)" stroke-width="24.80" stroke-opacity="1.00" stroke-linejoin="round"/>
<path d="M628.50,1651.50 C628.50,1651.50 625.50,1662.50 625.50,1662.50" fill="none" stroke="rgb(0, 0, 0)" stroke-width="24.80" stroke-opacity="1.00" stroke-linejoin="round"/>
<path d="M621.50,1654.50 C621.50,1654.50 626.50,1658.50 626.50,1658.50" fill="none" stroke="rgb(0, 0, 0)" stroke-width="24.80" stroke-opacity="1.00" stroke-linejoin="round"/>
<path d="M620.50,1658.50 C620.50,1658.50 625.50,1662.50 625.50,1662.50" fill="none" stroke="rgb(0, 0, 0)" stroke-width="24.80" stroke-opacity="1.00" stroke-linejoin="round"/>
<path d="M675.50,1665.50 C682.51,1666.31 698.07,1668.12 706.63,1669.14 C717.34,1670.50 720.11,1670.49 731.50,1669.50 C735.09,1669.11 742.51,1668.25 745.50,1667.50 C748.17,1666.82 755.71,1663.95 757.50,1663.50 C759.93,1662.90 765.66,1662.62 767.85,1661.87 C768.73,1661.56 769.28,1661.44 769.50,1661.50 C770.22,1661.71 770.76,1662.49 771.50,1662.50 C771.76,1662.51 772.10,1662.17 772.50,1661.50" fill="none" stroke="rgb(0, 0, 0)" stroke-width="24.80" stroke-opacity="1.00" stroke-linejoin="round"/>
<path d="M619.50,1662.50 C619.50,1662.50 624.50,1666.50 624.50,1666.50" fill="none" stroke="rgb(0, 0, 0)" stroke-width="24.80" stroke-opacity="1.00" stroke-linejoin="round"/>
<path d="M618.50,1667.50 C618.50,1667.50 623.50,1670.50 623.50,1670.50" fill="none" stroke="rgb(0, 0, 0)" stroke-width="24.80" stroke-opacity="1.00" stroke-linejoin="round"/>
<path d="M441.50,1668.50 C443.00,1669.39 444.91,1670.44 445.50,1670.50 C446.16,1670.59 446.89,1670.23 447.50,1670.50 C447.70,1670.59 454.91,1679.68 457.50,1682.50 C459.97,1685.18 468.05,1692.77 468.50,1693.50 C469.10,1694.48 469.22,1697.01 469.50,1697.50 C469.74,1697.91 470.50,1698.03 470.50,1698.50 C470.50,1698.66 470.16,1699.00 469.50,1699.50" fill="none" stroke="rgb(0, 0, 0)" stroke-width="24.80" stroke-opacity="1.00" stroke-linejoin="round"/>
<path d="M440.50,1670.50 C438.81,1670.99 436.61,1673.05 435.50,1675.50 C435.15,1676.29 434.38,1683.92 434.12,1689.94 C433.93,1693.83 433.61,1698.95 432.73,1701.42 C432.36,1702.54 432.61,1704.18 433.48,1706.33 C434.29,1708.31 435.88,1712.23 436.67,1714.36 C437.46,1716.52 437.56,1718.98 437.04,1721.08 C436.48,1723.32 436.59,1724.28 437.71,1725.83 C439.44,1728.12 445.06,1734.23 447.63,1736.96 C448.99,1738.49 450.41,1741.84 450.90,1742.99 C451.70,1744.80 453.20,1746.09 454.86,1746.38 C455.90,1746.56 459.68,1747.02 460.50,1747.50 C461.65,1748.19 465.60,1753.64 469.03,1757.49 C479.41,1768.84 503.76,1793.67 515.44,1804.82 C537.24,1824.31 570.26,1854.24 581.48,1864.68 C584.70,1867.63 590.09,1871.79 593.50,1872.50 C595.51,1872.88 605.16,1872.71 605.50,1872.50 C606.30,1872.00 607.81,1870.27 609.66,1869.77 C609.78,1869.74 632.21,1863.09 639.96,1860.67 C649.32,1857.64 663.64,1851.58 667.50,1849.50 C670.16,1848.06 674.75,1844.74 679.40,1842.97 C681.99,1841.97 682.99,1841.05 683.09,1839.64 C683.19,1837.98 683.68,1837.23 685.51,1836.02 C685.77,1835.84 704.33,1822.90 712.17,1817.55 C720.73,1811.87 733.95,1803.64 740.93,1799.79 C742.83,1798.75 746.01,1797.60 748.27,1797.25 C750.39,1796.95 752.87,1797.54 755.12,1798.59 C758.12,1800.06 763.18,1801.35 763.50,1801.50 C764.30,1801.92 766.83,1804.39 767.50,1805.50 C768.11,1806.54 769.60,1810.90 769.50,1811.50 C769.44,1811.80 769.11,1812.14 768.50,1812.50" fill="none" stroke="rgb(0, 0, 0)" stroke-width="24.80" stroke-opacity="1.00" stroke-linejoin="round"/>
<path d="M769.50,1675.50 C765.45,1685.20 762.02,1692.66 757.50,1700.71 C754.27,1706.74 751.71,1716.89 749.50,1726.50" fill="none" stroke="rgb(0, 0, 0)" stroke-width="24.80" stroke-opacity="1.00" stroke-linejoin="round"/>
<path d="M454.50,1678.50 C454.50,1678.50 449.50,1683.50 449.50,1683.50" fill="none" stroke="rgb(0, 0, 0)" stroke-width="24.80" stroke-opacity="1.00" stroke-linejoin="round"/>
<path d="M616.50,1690.50 C617.22,1691.98 617.74,1695.09 617.50,1697.50 C617.30,1699.42 606.29,1730.23 605.25,1733.23 C604.52,1735.17 604.83,1736.92 604.50,1737.50 C604.30,1737.86 601.19,1740.16 599.50,1741.50" fill="none" stroke="rgb(0, 0, 0)" stroke-width="24.80" stroke-opacity="1.00" stroke-linejoin="round"/>
<path d="M611.50,1695.50 C613.02,1696.99 614.02,1698.06 615.26,1699.59 C616.50,1701.12 616.49,1701.86 615.50,1702.50" fill="none" stroke="rgb(0, 0, 0)" stroke-width="24.80" stroke-opacity="1.00" stroke-linejoin="round"/>
<path d="M627.50,1634.50 C625.60,1635.89 624.31,1638.96 623.11,1644.39 C622.64,1646.67 620.77,1656.64 620.10,1659.90 C619.42,1663.28 617.49,1666.48 617.50,1666.50 C617.68,1666.94 618.49,1667.03 618.50,1667.50 C618.51,1667.64 616.34,1672.63 616.50,1673.50 C616.54,1673.74 619.29,1676.36 619.50,1677.50 C619.67,1678.41 618.72,1681.21 617.46,1684.50 C616.56,1686.69 616.89,1689.58 616.50,1690.50 C616.48,1690.56 613.34,1691.50 612.50,1692.50 C611.55,1693.63 603.04,1719.76 602.33,1723.21 C602.06,1724.46 601.81,1727.12 601.50,1727.50 C600.91,1728.24 599.16,1730.02 598.63,1732.41 C598.18,1734.51 597.23,1738.98 597.50,1739.50 C597.93,1740.34 599.12,1740.64 599.50,1741.50 C599.71,1741.98 588.47,1779.15 585.59,1786.90 C584.84,1788.97 583.09,1791.68 581.58,1792.77 C580.85,1793.29 577.65,1794.15 576.50,1794.50" fill="none" stroke="rgb(0, 0, 0)" stroke-width="24.80" stroke-opacity="1.00" stroke-linejoin="round"/>
<path d="M610.50,1698.50 C610.50,1698.50 615.50,1702.50 615.50,1702.50" fill="none" stroke="rgb(0, 0, 0)" stroke-width="24.80" stroke-opacity="1.00" stroke-linejoin="round"/>
<path d="M575.50,1723.50 C569.39,1715.93 564.64,1712.32 560.50,1709.50" fill="none" stroke="rgb(0, 0, 0)" stroke-width="24.80" stroke-opacity="1.00" stroke-linejoin="round"/>
<path d="M605.50,1713.50 C605.50,1713.50 604.50,1716.50 604.50,1716.50" fill="none" stroke="rgb(0, 0, 0)" stroke-width="24.80" stroke-opacity="1.00" stroke-linejoin="round"/>
<path d="M605.50,1713.50 C605.50,1713.50 610.50,1717.50 610.50,1717.50" fill="none" stroke="rgb(0, 0, 0)" stroke-width="24.80" stroke-opacity="1.00" stroke-linejoin="round"/>
<path d="M604.50,1716.50 C604.50,1716.50 609.50,1720.50 609.50,1720.50" fill="none" stroke="rgb(0, 0, 0)" stroke-width="24.80" stroke-opacity="1.00" stroke-linejoin="round"/>
<path d="M610.50,1717.50 C610.26,1718.60 609.65,1721.35 609.28,1723.00 C608.86,1724.97 608.13,1726.05 606.50,1727.50" fill="none" stroke="rgb(0, 0, 0)" stroke-width="24.80" stroke-opacity="1.00" stroke-linejoin="round"/>
<path d="M603.50,1719.50 C603.50,1719.50 608.50,1723.50 608.50,1723.50" fill="none" stroke="rgb(0, 0, 0)" stroke-width="24.80" stroke-opacity="1.00" stroke-linejoin="round"/>
<path d="M436.50,1723.50 C430.61,1721.93 426.68,1721.32 423.30,1721.58 C417.73,1722.31 407.17,1723.44 394.88,1723.58 C346.34,1723.19 328.54,1721.50 305.28,1721.09 C297.17,1721.08 280.72,1723.01 272.47,1725.44 C268.25,1726.70 247.30,1735.20 243.60,1737.98 C241.30,1739.74 235.21,1745.81 234.50,1747.50 C234.38,1747.78 234.14,1750.78 233.50,1751.50 C233.09,1751.97 228.15,1755.63 227.50,1756.50 C226.80,1757.43 225.60,1762.28 225.50,1762.50 C225.31,1762.96 221.41,1768.18 220.54,1770.77 C219.63,1773.65 220.95,1780.83 222.40,1784.98 C223.87,1789.05 226.82,1795.41 228.97,1798.79 C229.89,1800.11 232.53,1801.67 233.77,1801.16 C235.45,1800.41 239.49,1792.49 240.36,1789.06 C241.18,1786.49 247.01,1779.29 247.50,1778.50 C247.83,1777.98 249.13,1775.05 249.50,1774.50 C250.07,1773.67 256.55,1767.08 258.50,1765.50 C260.91,1763.57 267.50,1759.71 270.50,1758.50 C275.25,1756.63 287.24,1755.55 298.28,1754.99 C306.88,1754.63 323.76,1753.99 332.04,1753.70 C341.35,1753.46 349.52,1754.60 353.57,1754.87 C363.96,1755.46 376.56,1755.64 384.51,1755.15 C392.33,1754.50 409.85,1753.23 414.19,1753.56 C421.10,1754.07 434.72,1751.98 442.97,1749.99 C448.11,1748.68 450.45,1747.58 452.50,1745.50" fill="none" stroke="rgb(0, 0, 0)" stroke-width="24.80" stroke-opacity="1.00" stroke-linejoin="round"/>
<path d="M822.50,1726.50 C822.24,1733.77 821.51,1752.83 821.21,1756.96 C820.97,1760.11 819.67,1764.36 818.14,1767.48 C817.27,1769.21 815.80,1771.79 814.38,1774.05 C813.25,1775.81 811.04,1777.84 808.92,1779.13 C808.12,1779.61 806.19,1780.80 806.05,1782.04 C805.88,1783.66 805.21,1785.16 803.65,1787.20 C801.60,1789.85 799.86,1791.97 797.85,1794.25 C796.16,1796.12 794.40,1797.11 793.11,1796.95 C792.56,1796.86 792.04,1796.37 791.50,1796.50 C791.29,1796.55 790.96,1796.88 790.50,1797.50" fill="none" stroke="rgb(0, 0, 0)" stroke-width="24.80" stroke-opacity="1.00" stroke-linejoin="round"/>
<path d="M601.50,1727.50 C601.50,1727.50 606.50,1727.50 606.50,1727.50" fill="none" stroke="rgb(0, 0, 0)" stroke-width="24.80" stroke-opacity="1.00" stroke-linejoin="round"/>
<path d="M599.50,1731.50 C599.50,1731.50 604.50,1735.50 604.50,1735.50" fill="none" stroke="rgb(0, 0, 0)" stroke-width="24.80" stroke-opacity="1.00" stroke-linejoin="round"/>
<path d="M791.50,1741.50 C790.41,1742.42 788.85,1744.30 788.50,1745.50 C788.13,1746.82 789.38,1792.70 789.39,1793.03 C789.40,1793.95 790.55,1797.66 790.78,1803.14 C791.05,1811.09 791.36,1821.24 791.50,1821.50 C791.73,1821.91 792.69,1822.07 792.50,1822.50 C792.12,1823.36 791.01,1823.71 790.50,1824.50 C790.18,1824.99 790.80,1828.46 790.83,1829.39 C790.88,1830.89 790.11,1834.05 789.25,1835.83 C787.48,1839.37 782.67,1844.38 779.27,1846.62 C778.39,1847.19 774.98,1849.25 774.50,1849.50 C772.77,1850.38 770.89,1850.68 768.50,1850.50 C754.13,1849.14 734.79,1844.42 734.50,1844.50 C733.78,1844.69 733.24,1845.60 732.50,1845.50 C732.29,1845.47 729.61,1842.19 728.50,1841.50 C727.63,1840.95 723.64,1840.59 722.50,1840.50 C721.55,1840.43 712.19,1839.36 710.13,1839.60 C703.82,1840.51 686.31,1842.76 683.86,1842.07 C683.54,1841.98 683.09,1841.79 682.50,1841.50" fill="none" stroke="rgb(0, 0, 0)" stroke-width="24.80" stroke-opacity="1.00" stroke-linejoin="round"/>
<path d="M249.50,1774.50 C245.43,1770.92 242.03,1767.44 241.21,1764.87 C239.63,1759.74 238.36,1757.35 235.14,1753.47 C234.59,1752.81 234.05,1752.16 233.50,1751.50" fill="none" stroke="rgb(0, 0, 0)" stroke-width="24.80" stroke-opacity="1.00" stroke-linejoin="round"/>
<path d="M241.50,1786.50 C239.78,1785.45 237.94,1782.65 235.26,1776.84 C231.12,1767.89 226.29,1763.26 225.50,1762.50" fill="none" stroke="rgb(0, 0, 0)" stroke-width="24.80" stroke-opacity="1.00" stroke-linejoin="round"/>
<path d="M546.50,1776.50 C545.98,1774.45 545.08,1771.51 544.50,1770.50 C543.62,1769.01 535.99,1765.43 535.50,1765.50 C535.24,1765.55 534.90,1765.88 534.50,1766.50" fill="none" stroke="rgb(0, 0, 0)" stroke-width="24.80" stroke-opacity="1.00" stroke-linejoin="round"/>
<path d="M762.50,1819.50 C761.26,1821.39 757.45,1822.92 752.85,1823.54 C744.53,1824.60 737.17,1824.66 732.50,1824.50" fill="none" stroke="rgb(0, 0, 0)" stroke-width="24.80" stroke-opacity="1.00" stroke-linejoin="round"/>
<path d="M792.50,1822.50 C793.66,1822.67 795.76,1823.58 796.50,1824.50 C796.85,1824.94 799.17,1834.53 799.35,1837.48 C799.53,1841.21 797.42,1847.74 795.18,1850.36 C793.18,1852.62 786.47,1857.17 783.50,1858.50 C779.47,1860.26 773.60,1861.50 768.04,1862.25 C765.92,1862.55 764.24,1862.02 763.58,1861.96 C761.99,1861.84 758.26,1865.05 754.50,1868.50" fill="none" stroke="rgb(0, 0, 0)" stroke-width="24.80" stroke-opacity="1.00" stroke-linejoin="round"/>
<path d="M732.50,1845.50 C730.31,1847.67 724.61,1853.20 722.50,1854.50 C720.66,1855.61 717.60,1856.36 716.72,1856.54 C715.40,1856.81 713.07,1858.64 711.91,1860.34 C710.82,1861.98 710.34,1864.30 710.53,1865.82 C710.69,1867.11 710.43,1867.66 709.00,1868.93 C706.52,1871.14 703.44,1877.24 701.65,1881.07 C700.53,1883.44 695.56,1893.73 695.53,1893.80 C693.84,1897.75 692.44,1913.40 691.89,1920.09 C689.76,1954.64 686.48,2011.58 686.50,2015.50 C686.58,2024.52 688.49,2029.93 688.50,2031.50 C688.50,2032.46 687.50,2040.18 687.48,2044.88 C687.53,2047.74 687.94,2050.77 688.72,2051.77 C689.60,2052.83 692.57,2053.83 694.31,2053.83 C697.94,2053.72 720.44,2047.65 721.50,2046.50 C722.43,2045.42 724.85,2037.14 725.12,2036.18 C725.89,2033.37 724.23,2028.07 723.50,2027.50 C722.91,2027.05 721.98,2027.07 721.50,2026.50 C721.31,2026.28 715.10,1982.40 712.87,1965.69 C711.20,1950.50 710.76,1937.18 710.50,1936.50 C709.97,1935.16 708.56,1933.38 707.50,1932.50" fill="none" stroke="rgb(0, 0, 0)" stroke-width="24.80" stroke-opacity="1.00" stroke-linejoin="round"/>
<path d="M732.50,1846.50 C740.17,1854.32 754.13,1867.63 754.50,1868.50 C755.31,1870.43 755.19,1873.03 754.50,1874.50" fill="none" stroke="rgb(0, 0, 0)" stroke-width="24.80" stroke-opacity="1.00" stroke-linejoin="round"/>
<path d="M722.50,1854.50 C723.67,1855.48 724.34,1856.15 724.50,1856.50 C724.79,1857.10 724.29,1857.87 724.50,1858.50 C724.62,1858.85 739.99,1875.17 740.82,1876.10 C742.31,1877.85 743.12,1880.76 742.46,1882.69 C742.08,1883.77 740.01,1886.38 740.14,1887.90 C740.17,1888.20 740.29,1888.73 740.50,1889.50" fill="none" stroke="rgb(0, 0, 0)" stroke-width="24.80" stroke-opacity="1.00" stroke-linejoin="round"/>
<path d="M710.50,1867.50 C712.47,1869.54 717.46,1874.73 720.49,1877.88 C723.09,1880.66 726.75,1884.58 729.05,1888.11 C730.05,1889.59 734.00,1890.57 738.50,1891.50" fill="none" stroke="rgb(0, 0, 0)" stroke-width="24.80" stroke-opacity="1.00" stroke-linejoin="round"/>
<path d="M752.50,1876.50 C753.59,1877.64 756.70,1880.87 757.25,1881.62 C758.35,1883.16 758.60,1885.82 757.76,1886.93 C756.45,1888.49 749.65,1891.89 746.86,1892.46 C744.21,1892.95 741.40,1890.66 740.50,1889.50" fill="none" stroke="rgb(0, 0, 0)" stroke-width="24.80" stroke-opacity="1.00" stroke-linejoin="round"/>
<path d="M730.50,1889.50 C725.49,1895.23 710.58,1912.31 710.50,1912.50 C710.26,1913.12 710.50,1915.06 710.06,1916.40 C708.78,1920.53 708.25,1924.31 708.07,1929.92 C707.94,1931.90 707.42,1932.61 705.60,1933.68 C704.06,1934.57 703.27,1935.89 702.91,1938.13 C701.67,1945.40 699.42,1962.34 698.50,1969.50" fill="none" stroke="rgb(0, 0, 0)" stroke-width="24.80" stroke-opacity="1.00" stroke-linejoin="round"/>
<path d="M739.50,1896.50 C739.50,1896.50 738.50,1891.50 738.50,1891.50" fill="none" stroke="rgb(0, 0, 0)" stroke-width="24.80" stroke-opacity="1.00" stroke-linejoin="round"/>
<path d="M698.50,2032.50 C698.50,2032.50 708.50,2029.50 708.50,2029.50" fill="none" stroke="rgb(0, 0, 0)" stroke-width="24.80" stroke-opacity="1.00" stroke-linejoin="round"/>
</g>
</svg>
